<svg width="26" height="24" xmlns="http://www.w3.org/2000/svg" xmlns:xlink="http://www.w3.org/1999/xlink" overflow="hidden"><defs><clipPath id="clip0"><rect x="1006" y="477" width="26" height="24"/></clipPath><clipPath id="clip1"><rect x="1006" y="478" width="25" height="22"/></clipPath><clipPath id="clip2"><rect x="1006" y="478" width="25" height="22"/></clipPath></defs><g clip-path="url(#clip0)" transform="translate(-1006 -477)"><g clip-path="url(#clip1)"><g clip-path="url(#clip2)"><path d="M14.1963 21.2944C14.6991 21.2944 15.0836 21.6789 15.0836 22.1817 15.0836 22.6845 14.6991 23.069 14.1963 23.069 13.6935 23.069 13.309 22.6845 13.309 22.1817 13.309 21.6789 13.6935 21.2944 14.1963 21.2944ZM2.36605 24.252 26.0265 24.252 26.0265 20.1114 2.36605 20.1114 2.36605 24.252Z" fill="#0070C0" transform="matrix(1.02783 0 0 1 1003.82 475.413)"/><path d="M8.28117 10.0557 11.2387 10.0557 11.2387 11.2387 8.28117 11.2387Z" fill="#0070C0" transform="matrix(1.02783 0 0 1 1003.82 475.413)"/><path d="M8.28117 7.68966 11.2387 7.68966 11.2387 8.87268 8.28117 8.87268Z" fill="#0070C0" transform="matrix(1.02783 0 0 1 1003.82 475.413)"/><path d="M8.28117 5.32361 11.2387 5.32361 11.2387 6.50664 8.28117 6.50664Z" fill="#0070C0" transform="matrix(1.02783 0 0 1 1003.82 475.413)"/><path d="M22.4775 12.4218 15.3793 12.4218 15.3793 9.4642 22.4775 9.4642 22.4775 12.4218ZM12.4218 12.4218 7.09815 12.4218 7.09815 4.14059 12.4218 4.14059 12.4218 12.4218ZM24.252 12.4218 24.252 8.87268C24.252 8.22202 23.7196 7.68966 23.069 7.68966L13.6048 7.68966 13.6048 3.54907C13.6048 3.22374 13.3386 2.95756 13.0133 2.95756L6.50664 2.95756C6.1813 2.95756 5.91512 3.22374 5.91512 3.54907L5.91512 7.68966 5.32361 7.68966C4.67295 7.68966 4.14059 8.22202 4.14059 8.87268L4.14059 12.4218 2.36605 16.5623 2.36605 18.9284 26.0265 18.9284 26.0265 16.5623 24.252 12.4218Z" fill="#0070C0" transform="matrix(1.02783 0 0 1 1003.82 475.413)"/></g></g></g></svg>