<svg width="28" height="24" xmlns="http://www.w3.org/2000/svg" xmlns:xlink="http://www.w3.org/1999/xlink" overflow="hidden"><defs><clipPath id="clip0"><rect x="1005" y="324" width="28" height="24"/></clipPath><clipPath id="clip1"><rect x="1006" y="325" width="26" height="22"/></clipPath><clipPath id="clip2"><rect x="1006" y="325" width="26" height="22"/></clipPath></defs><g clip-path="url(#clip0)" transform="translate(-1005 -324)"><g clip-path="url(#clip1)"><g clip-path="url(#clip2)"><path d="M25.1081 21.0207C25.1081 21.4003 24.6701 21.7506 23.9403 22.0134L23.9403 20.9623C24.349 20.8455 24.7577 20.6704 25.1081 20.4952L25.1081 21.0207ZM22.7724 19.0938 22.7724 18.0428C23.1812 17.926 23.5899 17.7508 23.9403 17.5757L23.9403 18.1012C23.9403 18.4807 23.5023 18.8311 22.7724 19.0938ZM22.7724 22.3637C22.4221 22.4513 22.0134 22.5097 21.6046 22.5681L21.6046 21.4295C21.9842 21.3711 22.3929 21.3127 22.7724 21.2543L22.7724 22.3637ZM20.4368 18.5099C20.8163 18.4515 21.2251 18.3931 21.6046 18.3347L21.6046 19.4442C21.2543 19.5317 20.8455 19.5901 20.4368 19.6485L20.4368 18.5099ZM20.4368 22.7141C20.0573 22.7432 19.6777 22.7724 19.269 22.7724L19.269 21.6046C19.6193 21.6046 20.0281 21.5754 20.4368 21.5462L20.4368 22.7141ZM18.1012 19.8529 18.1012 18.6851C18.4515 18.6851 18.8603 18.6559 19.269 18.6267L19.269 19.7945C18.8894 19.8237 18.5099 19.8237 18.1012 19.8529ZM18.1012 22.7724C17.6924 22.7724 17.3129 22.7432 16.9334 22.7141L16.9334 21.6046C17.1377 21.6046 17.3129 21.6046 17.5173 21.6046 17.6924 21.6046 17.8968 21.6046 18.1012 21.6046L18.1012 22.7724ZM15.7655 18.6267C16.1451 18.6559 16.5246 18.6851 16.9334 18.6851L16.9334 19.8529C16.5246 19.8529 16.1451 19.8237 15.7655 19.7945L15.7655 18.6267ZM15.7655 22.5681C15.3568 22.5097 14.9481 22.4513 14.5977 22.3637L14.5977 21.4295C14.9773 21.4878 15.3568 21.517 15.7655 21.5462L15.7655 22.5681ZM13.4299 19.4442 13.4299 18.3055C13.8094 18.3639 14.189 18.4515 14.5977 18.4807L14.5977 19.6485C14.189 19.5901 13.7802 19.5317 13.4299 19.4442ZM13.4299 22.0134C12.7 21.7214 12.2621 21.3711 12.2621 21.0207L12.2621 20.9623C12.2621 20.9623 12.2621 20.9623 12.2913 20.9623 12.3789 20.9915 12.4373 21.0207 12.5248 21.0207 12.8168 21.1083 13.1088 21.1667 13.4299 21.2251L13.4299 22.0134ZM8.75863 18.0428C8.963 18.0428 9.13817 18.072 9.34254 18.072L9.34254 18.1012C9.34254 18.5099 9.43013 18.9186 9.63449 19.2398 9.34254 19.2398 9.05059 19.2106 8.75863 19.1814L8.75863 18.0428ZM7.59081 14.5393C7.97035 14.5977 8.3499 14.6853 8.75863 14.7145L8.75863 15.8823C8.3499 15.8239 7.94116 15.7655 7.59081 15.6779L7.59081 14.5393ZM7.59081 19.0646C7.18208 19.0062 6.77334 18.9478 6.423 18.8603L6.423 17.7216C6.80254 17.78 7.18208 17.8676 7.59081 17.8968L7.59081 19.0646ZM5.25518 14.3058 5.25518 13.7802C5.60552 13.9554 5.98506 14.1014 6.423 14.2182L6.423 15.2984C5.69311 15.0357 5.25518 14.6853 5.25518 14.3058ZM5.25518 18.5099C4.52529 18.218 4.08736 17.8676 4.08736 17.5173L4.08736 16.9917C4.43771 17.1669 4.81725 17.3129 5.25518 17.4297L5.25518 18.5099ZM4.08736 9.40093C4.43771 9.5761 4.81725 9.72208 5.25518 9.83886L5.25518 10.9191C4.52529 10.6271 4.08736 10.2768 4.08736 9.92645L4.08736 9.40093ZM7.59081 10.3352 7.59081 11.503C7.18208 11.4446 6.77334 11.3862 6.423 11.2986L6.423 10.16C6.80254 10.2184 7.18208 10.2768 7.59081 10.3352ZM10.5104 5.25518C14.0722 5.25518 16.9334 6.04346 16.9334 7.0069 16.9334 7.97035 14.0722 8.75863 10.5104 8.75863 6.94851 8.75863 4.08736 7.97035 4.08736 7.0069 4.08736 6.04346 6.94851 5.25518 10.5104 5.25518ZM12.2621 19.0938C11.5322 18.8019 11.0943 18.4515 11.0943 18.1012L11.0943 17.5757C11.4446 17.7508 11.8242 17.8968 12.2621 18.0136L12.2621 19.0938ZM15.7655 10.9191 15.7655 9.86806C16.1743 9.75128 16.583 9.5761 16.9334 9.40093L16.9334 9.92645C16.9334 10.306 16.4954 10.6563 15.7655 10.9191ZM13.4299 11.4738 13.4299 10.3352C13.8094 10.2768 14.2182 10.2184 14.5977 10.16L14.5977 11.2694C14.2474 11.357 13.8386 11.4154 13.4299 11.4738ZM11.0943 11.6782 11.0943 10.5104C11.4446 10.5104 11.8533 10.4812 12.2621 10.452L12.2621 11.6198C11.8825 11.649 11.503 11.649 11.0943 11.6782ZM8.75863 11.6198 8.75863 10.452C9.13817 10.4812 9.51771 10.5104 9.92645 10.5104L9.92645 11.6782C9.51771 11.649 9.13817 11.649 8.75863 11.6198ZM23.9403 15.1816C23.9403 16.1451 21.0791 16.9334 17.5173 16.9334 13.9554 16.9334 11.0943 16.1451 11.0943 15.1816 11.0943 14.2182 13.9554 13.4299 17.5173 13.4299 21.0791 13.4299 23.9403 14.2182 23.9403 15.1816ZM25.692 16.0575 25.692 15.1816C25.692 13.8094 24.6118 12.8168 22.5097 12.2621 21.7214 12.0577 20.8163 11.8825 19.7945 11.795 19.8237 11.6782 19.8237 11.5322 19.8237 11.3862 19.8237 10.5687 19.4442 9.86806 18.6559 9.34254L18.6559 7.0069C18.6559 5.63472 17.5757 4.64207 15.4736 4.08736 14.1014 3.70782 12.3497 3.50345 10.4812 3.50345 8.02874 3.50345 2.30644 3.8538 2.30644 7.0069L2.30644 9.92645C2.30644 10.7439 2.68598 11.4446 3.47426 11.9701L3.47426 12.5248C2.77357 13.0212 2.30644 13.6927 2.30644 14.5977L2.30644 17.5173C2.30644 18.8894 3.38667 19.8821 5.48874 20.4368 6.86093 20.8163 8.61265 21.0207 10.4812 21.0207 10.4812 22.3929 11.5614 23.3855 13.6635 23.9403 15.0357 24.3198 16.7874 24.5242 18.6559 24.5242 21.1083 24.5242 26.8306 24.1738 26.8306 21.0207L26.8306 18.1012C26.8598 17.2837 26.4803 16.583 25.692 16.0575Z" fill="#0070C0" transform="matrix(1.02816 0 0 1 1004.02 322.142)"/></g></g></g></svg>