<svg width="24" height="24" xmlns="http://www.w3.org/2000/svg" xmlns:xlink="http://www.w3.org/1999/xlink" overflow="hidden"><defs><clipPath id="clip0"><rect x="1007" y="402" width="24" height="24"/></clipPath><clipPath id="clip1"><rect x="1008" y="403" width="22" height="23"/></clipPath><clipPath id="clip2"><rect x="1008" y="403" width="22" height="23"/></clipPath></defs><g clip-path="url(#clip0)" transform="translate(-1007 -402)"><g clip-path="url(#clip1)"><g clip-path="url(#clip2)"><path d="M18.4954 25.4679 17.4679 24.4403 24.4403 17.4679 25.4679 18.4954 18.4954 25.4679ZM14.8991 21.8715 21.8715 14.8991 22.8991 15.9266 15.9266 22.8991 14.8991 21.8715ZM12.3303 19.3027 19.3027 12.3303 20.3302 13.3578 13.3578 20.3302 12.3303 19.3027ZM10.2752 11.7431C9.46788 11.7431 8.80733 11.0826 8.80733 10.2752 8.80733 9.46788 9.46788 8.80733 10.2752 8.80733 11.0826 8.80733 11.7431 9.46788 11.7431 10.2752 11.7431 11.0826 11.0826 11.7431 10.2752 11.7431ZM28.3302 18.055 18.055 7.77981C17.7614 7.48623 17.3945 7.33944 17.0275 7.33944L10.2752 7.33944C8.66054 7.33944 7.33944 8.66054 7.33944 10.2752L7.33944 16.9908C7.33944 17.3945 7.48623 17.7614 7.77981 18.0183L18.055 28.2935C18.6422 28.8807 19.5596 28.8807 20.1468 28.2935L28.3302 20.1101C28.8807 19.5596 28.8807 18.6055 28.3302 18.055Z" fill="#0070C0" transform="matrix(1 0 0 1.0337 1001.02 395.787)"/></g></g></g></svg>