<?xml version="1.0" encoding="utf-8"?>
<!-- Generator: Adobe Illustrator 16.0.0, SVG Export Plug-In . SVG Version: 6.00 Build 0)  -->
<!DOCTYPE svg PUBLIC "-//W3C//DTD SVG 1.1//EN" "http://www.w3.org/Graphics/SVG/1.1/DTD/svg11.dtd">
<svg version="1.1" id="Layer_1" xmlns="http://www.w3.org/2000/svg" xmlns:xlink="http://www.w3.org/1999/xlink" x="0px" y="0px"
	 width="36px" height="36px" viewBox="0 1.5 36 36" enable-background="new 0 1.5 36 36" xml:space="preserve">
<g>
	<defs>
		<rect id="SVGID_1_" x="2.67" y="2.059" width="31.33" height="33.941"/>
	</defs>
	<clipPath id="SVGID_2_">
		<use xlink:href="#SVGID_1_"  overflow="visible"/>
	</clipPath>
	<g clip-path="url(#SVGID_2_)">
		<g>
			<defs>
				<rect id="SVGID_3_" x="987.67" y="528.059" width="31.33" height="33.07"/>
			</defs>
			<clipPath id="SVGID_4_">
				<use xlink:href="#SVGID_3_"  overflow="visible"/>
			</clipPath>
			<g transform="translate(-985 -526)" clip-path="url(#SVGID_4_)">
				<g>
					<defs>
						<rect id="SVGID_5_" x="987.67" y="528.059" width="31.33" height="33.07"/>
					</defs>
					<clipPath id="SVGID_6_">
						<use xlink:href="#SVGID_5_"  overflow="visible"/>
					</clipPath>
					<g clip-path="url(#SVGID_6_)">
						<path fill="none" stroke="#FFFFFF" stroke-width="1.8334" d="M1010.299,536.827c0,3.855-3.163,6.98-7.064,6.98
							c-3.902,0-7.064-3.125-7.064-6.98c0-3.855,3.162-6.981,7.064-6.981C1007.136,529.846,1010.299,532.972,1010.299,536.827z"/>
						<path fill="none" stroke="#FFFFFF" stroke-width="1.8334" d="M1017.362,559.514v-6.98c0-1.047-0.53-2.094-1.412-2.792
							c-1.942-1.57-4.416-2.618-6.887-3.315c-1.767-0.524-3.71-0.873-5.829-0.873c-1.942,0-3.885,0.349-5.828,0.873
							c-2.473,0.697-4.945,1.919-6.888,3.315c-0.883,0.698-1.413,1.745-1.413,2.792v6.98H1017.362z"/>
					</g>
				</g>
			</g>
		</g>
	</g>
</g>
</svg>
