<svg width="36" height="39" xmlns="http://www.w3.org/2000/svg" xmlns:xlink="http://www.w3.org/1999/xlink" overflow="hidden"><defs><clipPath id="clip0"><rect x="985" y="526" width="36" height="39"/></clipPath><clipPath id="clip1"><rect x="985" y="526" width="36" height="38"/></clipPath><clipPath id="clip2"><rect x="985" y="526" width="36" height="38"/></clipPath></defs><g clip-path="url(#clip0)" transform="translate(-985 -526)"><g clip-path="url(#clip1)"><g clip-path="url(#clip2)"><path d="M32.0838 15.0393C32.0838 19.4691 28.4927 23.0602 24.0628 23.0602 19.633 23.0602 16.0419 19.4691 16.0419 15.0393 16.0419 10.6094 19.633 7.01832 24.0628 7.01832 28.4927 7.01832 32.0838 10.6094 32.0838 15.0393Z" stroke="#FFFFFF" stroke-width="1.83336" fill="none" transform="matrix(1.01199 0 0 1 978.533 521.036)"/><path d="M40.1047 41.1073 40.1047 33.0864C40.1047 31.8832 39.5031 30.6801 38.5005 29.878 36.2948 28.0733 33.4874 26.8701 30.6801 26.0681 28.6749 25.4665 26.4691 25.0654 24.0628 25.0654 21.8571 25.0654 19.6513 25.4665 17.4455 26.0681 14.6382 26.8701 11.8309 28.2738 9.62513 29.878 8.62251 30.6801 8.02094 31.8832 8.02094 33.0864L8.02094 41.1073 40.1047 41.1073Z" stroke="#FFFFFF" stroke-width="1.83336" fill="none" transform="matrix(1.01199 0 0 1 978.533 521.036)"/></g></g></g></svg>