<svg viewBox="0 0 96 96" xmlns="http://www.w3.org/2000/svg" xmlns:xlink="http://www.w3.org/1999/xlink" id="Icons_Coins" overflow="hidden"><path d="M86 72C86 73.3 84.5 74.5 82 75.4L82 71.8C83.4 71.4 84.8 70.8 86 70.2L86 72ZM78 65.4 78 61.8C79.4 61.4 80.8 60.8 82 60.2L82 62C82 63.3 80.5 64.5 78 65.4ZM78 76.6C76.8 76.9 75.4 77.1 74 77.3L74 73.4C75.3 73.2 76.7 73 78 72.8L78 76.6ZM70 63.4C71.3 63.2 72.7 63 74 62.8L74 66.6C72.8 66.9 71.4 67.1 70 67.3L70 63.4ZM70 77.8C68.7 77.9 67.4 78 66 78L66 74C67.2 74 68.6 73.9 70 73.8L70 77.8ZM62 68 62 64C63.2 64 64.6 63.9 66 63.8L66 67.8C64.7 67.9 63.4 67.9 62 68ZM62 78C60.6 78 59.3 77.9 58 77.8L58 74C58.7 74 59.3 74 60 74 60.6 74 61.3 74 62 74L62 78ZM54 63.8C55.3 63.9 56.6 64 58 64L58 68C56.6 68 55.3 67.9 54 67.8L54 63.8ZM54 77.3C52.6 77.1 51.2 76.9 50 76.6L50 73.4C51.3 73.6 52.6 73.7 54 73.8L54 77.3ZM46 66.6 46 62.7C47.3 62.9 48.6 63.2 50 63.3L50 67.3C48.6 67.1 47.2 66.9 46 66.6ZM46 75.4C43.5 74.4 42 73.2 42 72L42 71.8C42 71.8 42 71.8 42.1 71.8 42.4 71.9 42.6 72 42.9 72 43.9 72.3 44.9 72.5 46 72.7L46 75.4ZM30 61.8C30.7 61.8 31.3 61.9 32 61.9L32 62C32 63.4 32.3 64.8 33 65.9 32 65.9 31 65.8 30 65.7L30 61.8ZM26 49.8C27.3 50 28.6 50.3 30 50.4L30 54.4C28.6 54.2 27.2 54 26 53.7L26 49.8ZM26 65.3C24.6 65.1 23.2 64.9 22 64.6L22 60.7C23.3 60.9 24.6 61.2 26 61.3L26 65.3ZM18 49 18 47.2C19.2 47.8 20.5 48.3 22 48.7L22 52.4C19.5 51.5 18 50.3 18 49ZM18 63.4C15.5 62.4 14 61.2 14 60L14 58.2C15.2 58.8 16.5 59.3 18 59.7L18 63.4ZM14 32.2C15.2 32.8 16.5 33.3 18 33.7L18 37.4C15.5 36.4 14 35.2 14 34L14 32.2ZM26 35.4 26 39.4C24.6 39.2 23.2 39 22 38.7L22 34.8C23.3 35 24.6 35.2 26 35.4ZM36 18C48.2 18 58 20.7 58 24 58 27.3 48.2 30 36 30 23.8 30 14 27.3 14 24 14 20.7 23.8 18 36 18ZM42 65.4C39.5 64.4 38 63.2 38 62L38 60.2C39.2 60.8 40.5 61.3 42 61.7L42 65.4ZM54 37.4 54 33.8C55.4 33.4 56.8 32.8 58 32.2L58 34C58 35.3 56.5 36.5 54 37.4ZM46 39.3 46 35.4C47.3 35.2 48.7 35 50 34.8L50 38.6C48.8 38.9 47.4 39.1 46 39.3ZM38 40 38 36C39.2 36 40.6 35.9 42 35.8L42 39.8C40.7 39.9 39.4 39.9 38 40ZM30 39.8 30 35.8C31.3 35.9 32.6 36 34 36L34 40C32.6 39.9 31.3 39.9 30 39.8ZM82 52C82 55.3 72.2 58 60 58 47.8 58 38 55.3 38 52 38 48.7 47.8 46 60 46 72.2 46 82 48.7 82 52ZM88 55 88 52C88 47.3 84.3 43.9 77.1 42 74.4 41.3 71.3 40.7 67.8 40.4 67.9 40 67.9 39.5 67.9 39 67.9 36.2 66.6 33.8 63.9 32L63.9 24C63.9 19.3 60.2 15.9 53 14 48.3 12.7 42.3 12 35.9 12 27.5 12 7.9 13.2 7.9 24L7.9 34C7.9 36.8 9.2 39.2 11.9 41L11.9 42.9C9.5 44.6 7.9 46.9 7.9 50L7.9 60C7.9 64.7 11.6 68.1 18.8 70 23.5 71.3 29.5 72 35.9 72 35.9 76.7 39.6 80.1 46.8 82 51.5 83.3 57.5 84 63.9 84 72.3 84 91.9 82.8 91.9 72L91.9 62C92 59.2 90.7 56.8 88 55Z" fill="#0070C0"/></svg>